<?xml version="1.0" encoding="UTF-8" standalone="no"?>
<svg
   xmlns:dc="http://purl.org/dc/elements/1.1/"
   xmlns:cc="http://creativecommons.org/ns#"
   xmlns:rdf="http://www.w3.org/1999/02/22-rdf-syntax-ns#"
   xmlns:svg="http://www.w3.org/2000/svg"
   xmlns="http://www.w3.org/2000/svg"
   viewBox="0 0 842.74121 164"
   height="164"
   width="842.74121"
   id="svg898"
   version="1.1">
  <metadata
     id="metadata904">
    <rdf:RDF>
      <cc:Work
         rdf:about="">
        <dc:format>image/svg+xml</dc:format>
        <dc:type
           rdf:resource="http://purl.org/dc/dcmitype/StillImage" />
        <dc:title></dc:title>
      </cc:Work>
    </rdf:RDF>
  </metadata>
  <defs
     id="defs902" />
  <path
     id="path908"
     d="m 171.89665,82 c 0,-72.22222 0.17886,-82 1.5,-82 1.32114,0 1.5,9.77778 1.5,82 0,72.22222 -0.17886,82 -1.5,82 -1.32114,0 -1.5,-9.77778 -1.5,-82 z M 43.896649,152.03137 c -46.3405803,-0.71374 -43.30323027,1.62586 -43.80377027,-33.74088 -0.36946,-26.10448 0.0971,-28.45455 6.42532997,-32.36562 3.3618,-2.0777 4.0575703,-2.10196 50.6435303,-1.76576 62.505821,0.4511 57.734911,-2.46522 57.734911,35.29168 0,26.95644 -0.25116,28.04011 -7.28845,31.4468 -3.79631,1.83776 -5.9082,2.07489 -16.777271,1.88378 -6.83886,-0.12025 -27.95928,-0.45775 -46.93428,-0.75 z m 25.04745,-9.05558 c 5.88383,-3.0017 10.52575,-8.21913 12.85768,-14.45176 2.39129,-6.39131 2.57893,-9.69011 0.92892,-16.33121 -3.12331,-12.57105 -13.24301,-20.64162 -25.78533,-20.56411 -7.54782,0.0466 -12.12027,1.73919 -17.52991,6.48892 -12.16587,10.68177 -11.36286,30.12256 1.72553,41.7744 6.75965,6.01774 19.32107,7.41098 27.80311,3.08376 z m -17.38858,-0.0423 c -9.8208,-2.40366 -17.56145,-11.8507 -18.41414,-22.47347 -1.20869,-15.05766 8.85107,-26.65326 23.21507,-26.75937 10.37969,-0.0767 19.23268,5.70237 23.3258,15.2266 2.41731,5.62479 2.10306,15.71114 -0.65267,20.94903 -5.40225,10.26816 -16.77873,15.67491 -27.47406,13.05721 z m 17.17472,-6.55944 c 5.74766,-4.13149 8.47568,-8.88813 8.98049,-15.65856 1.57471,-21.11994 -23.44745,-32.10668 -36.65538,-16.09466 -2.93817,3.56196 -5.13933,8.80914 -5.15312,12.28414 -0.004,1.08012 0.44774,0.99473 1.95497,-0.36929 1.42973,-1.29389 2.85118,-1.60502 5.25,-1.14912 1.8092,0.34383 4.81493,0.73501 6.67941,0.86929 4.05474,0.292 6.15678,2.85971 4.49774,5.49413 -0.60614,0.9625 -1.95383,1.90626 -2.99488,2.09724 -1.04105,0.19098 -3.10271,1.48622 -4.58146,2.8783 -1.88846,1.77779 -3.43801,2.38782 -5.20652,2.04975 -2.07216,-0.39612 -2.36379,-0.19755 -1.64742,1.12169 1.65695,3.05138 6.83351,7.26728 10.67984,8.69789 5.7159,2.12599 13.46485,1.18025 18.19633,-2.2208 z m -21.81337,-12.41184 c 1.46458,-2.7366 0.33937,-5.84127 -2.60289,-7.18185 -1.95823,-0.89223 -2.78434,-0.75821 -4.41327,0.71594 -2.24272,2.02964 -2.62308,5.48466 -0.80406,7.30368 1.95095,1.95095 6.59393,1.45355 7.82022,-0.83777 z m 6.29465,-3.34037 C 53.817529,119.04261 52.117239,117 50.196649,117 c -0.72,0 -1.3,1.11538 -1.3,2.5 0,1.78624 0.54047,2.5 1.89301,2.5 1.04116,0 2.13099,-0.62017 2.42186,-1.37814 z M 30.896649,93.62232 v -4.37768 l -9.25,-0.47454 c -5.0875,-0.261 -9.28321,-0.42855 -9.32381,-0.37232 -0.0406,0.0562 0.11722,2.23972 0.35069,4.85222 l 0.42451,4.75 h 8.8993 8.89931 z M 402.07926,126.09821 C 388.90634,121.54859 383.89665,109.53637 383.89665,82.5 c 0,-15.56001 1.52399,-24.93068 5.28562,-32.5 2.79813,-5.63054 3.96485,-6.90129 8.7223,-9.5 5.20107,-2.84104 6.10143,-3 16.99208,-3 10.64884,0 11.83306,0.19649 16,2.65484 12.59178,7.4287 15.54973,17.00649 14.77621,47.84516 -0.41596,16.58358 -0.58733,17.83061 -3.27254,23.81328 -3.39827,7.57139 -8.85098,12.61844 -15.89149,14.70925 -6.80994,2.02233 -17.90344,1.82965 -24.42957,-0.42432 z m 18.3855,-16.56222 c 5.47711,-2.28848 6.73425,-6.39826 7.22569,-23.62178 0.46895,-16.43524 -0.73006,-24.56601 -4.22114,-28.62463 -1.88075,-2.18651 -3.32086,-2.71608 -8.38145,-3.08213 -5.70818,-0.41289 -6.30456,-0.24795 -9.05765,2.50514 -3.78304,3.78304 -4.43939,8.76251 -3.93401,29.84584 0.26329,10.98387 0.8178,16.81811 1.78303,18.76009 2.65776,5.34728 9.63514,7.12153 16.58553,4.21747 z m 121.85619,17.5236 c -5.12652,-1.22624 -11.25689,-5.20749 -13.83674,-8.98601 -5.00689,-7.33323 -6.08756,-13.73705 -6.08756,-36.07358 0,-22.79208 0.96852,-28.20531 6.38395,-35.68109 4.45725,-6.15307 10.62528,-8.74313 21.82192,-9.16341 10.75028,-0.40352 16.84491,1.20126 22.61024,5.95353 7.6451,6.30175 10.68389,17.5056 10.68389,39.39097 0,27.73773 -4.96297,39.03018 -19.28495,43.87976 -4.94392,1.67407 -16.6425,2.03086 -22.29075,0.67983 z m 15.98622,-17.45776 c 5.30869,-2.21811 6.79563,-7.50845 6.97215,-24.80609 0.21121,-20.69577 -1.09608,-26.56194 -6.54765,-29.38105 -4.06683,-2.10304 -11.06885,-1.8052 -14.12777,0.60095 -4.20982,3.31144 -5.05977,7.85518 -5.05826,27.04084 10e-4,15.29631 0.24918,18.06314 1.9262,21.49211 3.03148,6.19841 9.46958,8.13085 16.83533,5.05324 z M 237.11159,125.75 c -0.6758,-0.82018 -0.9758,-15.55325 -0.87245,-42.84617 0.13231,-34.94151 0.39243,-41.87925 1.62592,-43.36563 1.33319,-1.60652 3.17493,-1.72932 20,-1.33347 16.60369,0.39063 19.07852,0.67588 23.78887,2.7419 8.42504,3.69534 11.9924,8.88333 13.85453,20.14851 0.86799,5.25098 -1.30602,14.18265 -4.53814,18.64446 -1.54819,2.13722 -5.19081,5.41047 -8.09471,7.2739 -5.09583,3.26999 -5.6927,3.40277 -17.12938,3.81053 l -11.84958,0.42248 -0.22681,10.62674 c -0.12474,5.84471 -0.11898,13.00807 0.0128,15.91857 0.37142,8.20291 -0.57824,9.20818 -8.69874,9.20818 -4.25792,0 -7.2314,-0.47214 -7.87232,-1.25 z M 275.00617,72.40088 C 278.95285,68.82919 278.00515,60.80371 273.1894,57.01564 271.08415,55.35964 269.13437,55 262.26179,55 h -8.36514 v 9.43358 9.43358 l 2.75,0.47614 c 5.11709,0.88599 16.57349,-0.32608 18.35952,-1.94242 z m 35.24444,53.07914 c -0.79116,-2.06172 0.26685,-85.05746 1.1015,-86.40796 C 311.72607,38.46699 315.2094,38 319.34868,38 c 5.76515,0 7.46384,0.33837 7.94098,1.58179 0.33385,0.86998 0.60699,8.9026 0.60699,17.85025 v 16.26847 l 9.15362,0.64975 c 5.0345,0.35736 10.4345,0.64974 12,0.64974 h 2.84638 V 57.7 c 0,-12.12222 0.35915,-17.65915 1.2,-18.5 0.71358,-0.71358 4.15132,-1.2 8.48095,-1.2 6.98135,0 7.30743,0.10553 7.92465,2.56473 0.35404,1.41059 0.25011,21.32309 -0.23095,44.25 L 368.39665,126.5 h -8 -8 L 352.12304,109.25 351.84942,92 h -11.97638 -11.97639 v 8.34638 c 0,4.5905 -0.29238,12.4655 -0.64974,17.5 L 326.59716,127 h -7.88164 c -6.12946,0 -8.01131,-0.33791 -8.46491,-1.51998 z m 166.02093,0.0545 c -0.30929,-0.806 -0.63267,-16.8935 -0.71862,-35.75 L 475.39665,55.5 h -8.78555 c -10.27588,0 -10.6766,-0.32465 -10.69914,-8.66821 C 455.88616,37.26555 453.5602,38 483.88119,38 c 20.20152,0 27.02283,0.30673 27.79858,1.25 1.52156,1.85012 1.28141,13.54261 -0.31085,15.13487 -0.93578,0.93579 -3.66675,1.24114 -9.25132,1.03441 l -7.92359,-0.29331 -0.72459,34.67602 c -0.45121,21.59337 -1.11942,35.15176 -1.77112,35.93701 -1.56514,1.88587 -14.69139,1.71192 -15.42676,-0.20444 z m 161.37079,0.65498 c -1.62848,-0.31358 -1.74568,-3.20989 -1.74568,-43.14038 0,-33.0378 0.28521,-43.03479 1.25,-43.8147 2.04859,-1.65604 11.02147,-2.4619 14.15342,-1.27114 l 2.86153,1.08795 -0.45575,34.97439 L 653.2501,109 h 11.68399 11.68398 l 0.6004,5.06945 c 0.68484,5.78244 -0.086,10.93541 -1.71401,11.45815 -1.50992,0.48481 -35.67989,1.0822 -37.86213,0.66194 z m 53.00432,-0.2696 c -1.59492,-0.92896 -1.73822,-3.1195 -1.61703,-24.71959 0.0731,-13.03517 0.41063,-32.47531 0.75,-43.20031 l 0.61703,-19.5 h 8 8 l 0.26084,42.88448 c 0.18751,30.82865 -0.0578,43.26835 -0.87245,44.25 -1.35007,1.62673 -12.47536,1.83649 -15.13839,0.28542 z m 33.99997,0.41043 c -0.9625,-0.26234 -1.7641,-1.00648 -1.7813,-1.65365 -0.3171,-11.91235 0.255,-84.09595 0.6752,-85.19087 0.5042,-1.31393 4.0456,-1.4831 26.2195,-1.25246 l 25.6366,0.26665 0.052,5.5 c 0.028,3.025 -0.1381,6.72711 -0.3703,8.2269 l -0.4223,2.72691 -17.1087,0.27309 -17.1086,0.2731 -0.021,7.74703 -0.021,7.74703 9,0.009 c 4.95,0.005 12.7125,0.29797 17.25,0.65119 l 8.25,0.64222 v 7.15179 c 0,4.22916 -0.4904,7.64217 -1.2,8.35178 -0.8352,0.83517 -6.1556,1.2 -17.5,1.2 h -16.3 v 17.37756 c 0,12.70254 -0.3363,17.64632 -1.25,18.3766 -1.4476,1.15695 -11.4192,2.27959 -14,1.57617 z m 66.8089,-0.17452 c -1.6755,-0.3248 -1.752,-2.76055 -1.358,-43.25919 0.2622,-26.95217 0.7927,-43.2902 1.4262,-43.92368 0.639,-0.63904 10.1453,-0.91051 25.9408,-0.74081 L 842.39658,38.5 v 8 8 l -17.24996,0.27361 -17.25,0.27362 V 63.02361 71 l 10.75,0.11688 c 5.9125,0.0643 13.675,0.40179 17.25,0.75 l 6.49996,0.63312 -0.3622,7.5 c -0.1992,4.125 -0.8742,7.83061 -1.5,8.23469 -0.6258,0.40408 -8.22526,0.74158 -16.88776,0.75 l -15.75,0.0153 v 9.97639 9.97638 l 17.25,0.27362 17.24996,0.27361 0.2969,7.4031 c 0.1633,4.07171 -0.1064,7.80635 -0.5992,8.29922 -0.839,0.83895 -46.76846,1.70377 -50.63876,0.95349 z M 34.646649,80.28375 l -2.75,-0.41659 V 68.86598 57.8648 l 22.9186,0.3176 c 12.60523,0.17468 23.28237,0.68224 23.72697,1.1279 0.44461,0.44567 0.98227,5.50817 1.19482,11.25 L 80.123489,81 58.760069,80.85017 c -11.74988,-0.0824 -22.60092,-0.3373 -24.11342,-0.56642 z m -6.5,-25.00715 -3.25,-0.40332 V 38.93664 23 h 25.86043 c 14.22323,0 27.94823,0.28617 30.5,0.63592 l 4.63957,0.63593 V 40.13592 56 l -27.25,-0.16004 c -14.9875,-0.088 -28.7125,-0.34153 -30.5,-0.56336 z m 53.75,-15.12004 V 28.31312 l -15.75,-0.65323 c -8.6625,-0.35927 -20.5875,-0.65473 -26.5,-0.65656 l -10.75,-0.003 v 12.5 12.5 h 26.5 26.5 z"
     style="fill:#ffffff" />
</svg>
